<?xml version="1.0" standalone="no"?>
<!DOCTYPE svg PUBLIC "-//W3C//DTD SVG 20010904//EN"
 "http://www.w3.org/TR/2001/REC-SVG-20010904/DTD/svg10.dtd">
<svg version="1.0" xmlns="http://www.w3.org/2000/svg"
 width="1418.000000pt" height="1418.000000pt" viewBox="0 0 1418.000000 1418.000000"
 preserveAspectRatio="xMidYMid meet">

<g transform="translate(0.000000,1418.000000) scale(0.100000,-0.100000)"
fill="#000000" stroke="none">
<path d="M6715 14169 c-2239 -120 -4289 -1291 -5530 -3159 -1096 -1650 -1451
-3679 -980 -5605 583 -2381 2356 -4292 4690 -5055 520 -170 1035 -274 1620
-326 235 -21 855 -25 1080 -6 363 31 707 81 1010 148 1806 399 3370 1469 4390
3004 1149 1729 1480 3863 911 5868 -538 1895 -1859 3491 -3626 4381 -1103 556
-2336 816 -3565 750z m-3498 -4082 c7 -6 82 -129 167 -272 86 -143 219 -366
296 -495 162 -269 671 -1121 1130 -1890 172 -289 394 -659 492 -823 98 -164
187 -316 198 -337 11 -22 26 -40 33 -40 10 1 146 221 256 413 13 23 32 54 42
69 11 14 19 28 19 30 0 3 90 155 201 339 111 184 210 350 221 369 11 19 29 47
39 62 11 14 19 28 19 31 0 3 65 112 143 244 250 414 547 914 547 919 0 2 -312
4 -693 4 -539 0 -697 3 -709 13 -9 6 -40 53 -69 102 -29 50 -86 146 -127 215
-42 69 -83 139 -92 155 -10 17 -83 138 -162 270 -243 403 -367 613 -370 624
-2 8 629 11 2311 11 1273 0 2317 -2 2319 -5 3 -2 0 -10 -5 -17 -6 -7 -75 -121
-153 -253 -79 -132 -150 -252 -159 -267 -9 -14 -34 -56 -56 -94 -63 -107 -67
-113 -139 -234 -38 -63 -77 -128 -86 -145 -9 -16 -50 -84 -90 -150 -41 -66
-95 -156 -120 -200 -26 -44 -70 -117 -97 -161 -28 -45 -64 -106 -81 -135 -16
-30 -68 -117 -114 -194 -47 -77 -172 -286 -278 -465 -107 -179 -268 -449 -358
-600 -91 -151 -173 -288 -182 -305 -10 -16 -73 -122 -140 -235 -68 -113 -131
-218 -140 -235 -10 -16 -40 -67 -69 -113 -28 -46 -51 -85 -51 -87 0 -2 -41
-72 -92 -157 -50 -84 -99 -166 -108 -183 -10 -16 -96 -160 -192 -320 -96 -159
-186 -310 -200 -335 -14 -25 -60 -103 -103 -174 l-78 -130 29 -50 c15 -28 84
-146 153 -262 70 -116 230 -385 356 -597 199 -335 255 -417 255 -378 0 9 43
84 178 306 47 77 106 176 132 220 25 44 66 112 90 150 23 39 72 120 108 180
35 61 75 127 89 148 13 21 32 52 42 70 10 18 43 73 73 122 30 50 78 131 107
180 29 50 75 124 101 165 26 41 87 138 135 215 49 77 124 196 168 265 44 69
118 186 165 260 46 74 100 159 118 187 19 29 34 56 34 59 0 4 11 22 26 41 l25
33 770 0 c423 0 769 -3 769 -6 0 -9 -38 -74 -410 -694 -200 -333 -371 -618
-380 -635 -10 -16 -54 -90 -99 -164 -44 -73 -81 -135 -81 -138 0 -2 -13 -24
-30 -48 -16 -24 -30 -46 -30 -49 0 -3 -27 -48 -60 -101 -33 -53 -60 -98 -60
-101 0 -2 -15 -28 -34 -57 -29 -46 -198 -328 -246 -411 -10 -17 -36 -62 -60
-100 -23 -38 -50 -83 -59 -100 -10 -17 -181 -303 -381 -636 -200 -333 -368
-614 -374 -625 -29 -52 -101 -172 -112 -185 -6 -8 -24 -37 -38 -65 -15 -27
-52 -90 -82 -139 -29 -49 -54 -90 -54 -92 0 -1 -27 -46 -60 -99 -33 -53 -60
-97 -60 -99 0 -1 -50 -85 -111 -187 -61 -101 -119 -197 -129 -214 -102 -175
-191 -315 -200 -315 -5 0 -24 26 -43 58 -19 31 -67 111 -107 177 -40 66 -80
134 -90 150 -9 17 -31 53 -48 80 -36 59 -507 846 -532 890 -10 17 -118 197
-240 400 -123 204 -231 384 -240 400 -10 17 -77 129 -150 250 -73 121 -141
234 -150 250 -10 17 -63 107 -120 200 -181 301 -354 589 -370 616 -68 116
-168 283 -196 326 -19 29 -34 55 -34 57 0 3 -50 87 -111 188 -61 101 -122 202
-135 226 -14 23 -572 955 -1241 2070 -669 1115 -1224 2041 -1233 2057 -10 17
-111 185 -225 375 -114 189 -210 351 -212 360 -4 13 77 15 784 12 611 -2 790
-5 800 -15z m9360 -25 c-12 -15 -38 -57 -107 -177 -10 -16 -49 -83 -89 -149
-39 -65 -71 -121 -71 -123 0 -2 -18 -31 -40 -63 -22 -32 -40 -61 -40 -64 0 -2
-23 -42 -51 -88 -29 -46 -108 -177 -177 -293 -68 -115 -141 -237 -162 -270
-38 -61 -117 -193 -151 -252 -10 -18 -50 -85 -90 -150 -39 -65 -80 -131 -89
-148 -10 -16 -49 -83 -89 -149 -39 -65 -71 -120 -71 -123 0 -2 -8 -16 -19 -31
-10 -15 -31 -49 -47 -76 -16 -28 -40 -68 -54 -91 -14 -23 -45 -75 -69 -116
-45 -77 -81 -135 -113 -181 -10 -15 -18 -29 -18 -31 0 -3 -36 -64 -80 -137
-44 -73 -80 -134 -80 -135 0 -2 -23 -41 -51 -87 -29 -46 -60 -99 -71 -118 -11
-19 -27 -41 -36 -47 -12 -10 -188 -13 -799 -13 -431 0 -783 4 -783 8 0 4 14
30 31 58 32 49 507 838 647 1074 41 69 90 149 108 177 19 29 34 55 34 59 0 3
14 25 30 49 17 24 30 46 30 48 0 2 50 87 111 188 61 101 120 200 131 219 17
30 597 994 722 1202 l41 68 785 2 c829 3 815 4 777 -40z"/>
</g>
</svg>
